{
	"patcher" : 	{
		"fileversion" : 1,
		"appversion" : 		{
			"major" : 8,
			"minor" : 6,
			"revision" : 4,
			"architecture" : "x64",
			"modernui" : 1
		}
,
		"classnamespace" : "box",
		"rect" : [ 59.0, 119.0, 1092.0, 879.0 ],
		"bglocked" : 0,
		"openinpresentation" : 1,
		"default_fontsize" : 12.0,
		"default_fontface" : 0,
		"default_fontname" : "Arial",
		"gridonopen" : 1,
		"gridsize" : [ 15.0, 15.0 ],
		"gridsnaponopen" : 1,
		"objectsnaponopen" : 1,
		"statusbarvisible" : 2,
		"toolbarvisible" : 1,
		"lefttoolbarpinned" : 0,
		"toptoolbarpinned" : 0,
		"righttoolbarpinned" : 0,
		"bottomtoolbarpinned" : 0,
		"toolbars_unpinned_last_save" : 0,
		"tallnewobj" : 0,
		"boxanimatetime" : 200,
		"enablehscroll" : 1,
		"enablevscroll" : 1,
		"devicewidth" : 0.0,
		"description" : "",
		"digest" : "",
		"tags" : "",
		"style" : "",
		"subpatcher_template" : "",
		"assistshowspatchername" : 0,
		"boxes" : [ 			{
				"box" : 				{
					"bgmode" : 0,
					"border" : 0,
					"clickthrough" : 0,
					"enablehscroll" : 0,
					"enablevscroll" : 0,
					"id" : "obj-17",
					"lockeddragscroll" : 0,
					"lockedsize" : 0,
					"maxclass" : "bpatcher",
					"name" : "pitch-grid-cell.maxpat",
					"numinlets" : 1,
					"numoutlets" : 0,
					"offset" : [ 0.0, 0.0 ],
					"patching_rect" : [ 292.0, 606.0, 30.0, 30.0 ],
					"presentation" : 1,
					"presentation_rect" : [ 253.0, 80.0, 45.0, 45.0 ],
					"viewvisibility" : 1
				}

			}
, 			{
				"box" : 				{
					"bgmode" : 0,
					"border" : 0,
					"clickthrough" : 0,
					"enablehscroll" : 0,
					"enablevscroll" : 0,
					"id" : "obj-20",
					"lockeddragscroll" : 0,
					"lockedsize" : 0,
					"maxclass" : "bpatcher",
					"name" : "pitch-grid-cell.maxpat",
					"numinlets" : 1,
					"numoutlets" : 0,
					"offset" : [ 0.0, 0.0 ],
					"patching_rect" : [ 246.0, 606.0, 30.0, 30.0 ],
					"presentation" : 1,
					"presentation_rect" : [ 206.0, 80.0, 45.0, 45.0 ],
					"viewvisibility" : 1
				}

			}
, 			{
				"box" : 				{
					"bgmode" : 0,
					"border" : 0,
					"clickthrough" : 0,
					"enablehscroll" : 0,
					"enablevscroll" : 0,
					"id" : "obj-24",
					"lockeddragscroll" : 0,
					"lockedsize" : 0,
					"maxclass" : "bpatcher",
					"name" : "pitch-grid-cell.maxpat",
					"numinlets" : 1,
					"numoutlets" : 0,
					"offset" : [ 0.0, 0.0 ],
					"patching_rect" : [ 198.0, 606.0, 30.0, 30.0 ],
					"presentation" : 1,
					"presentation_rect" : [ 159.0, 80.0, 45.0, 45.0 ],
					"viewvisibility" : 1
				}

			}
, 			{
				"box" : 				{
					"bgmode" : 0,
					"border" : 0,
					"clickthrough" : 0,
					"enablehscroll" : 0,
					"enablevscroll" : 0,
					"id" : "obj-25",
					"lockeddragscroll" : 0,
					"lockedsize" : 0,
					"maxclass" : "bpatcher",
					"name" : "pitch-grid-cell.maxpat",
					"numinlets" : 1,
					"numoutlets" : 0,
					"offset" : [ 0.0, 0.0 ],
					"patching_rect" : [ 151.0, 606.0, 30.0, 30.0 ],
					"presentation" : 1,
					"presentation_rect" : [ 112.0, 80.0, 45.0, 45.0 ],
					"viewvisibility" : 1
				}

			}
, 			{
				"box" : 				{
					"bgmode" : 0,
					"border" : 0,
					"clickthrough" : 0,
					"enablehscroll" : 0,
					"enablevscroll" : 0,
					"id" : "obj-29",
					"lockeddragscroll" : 0,
					"lockedsize" : 0,
					"maxclass" : "bpatcher",
					"name" : "pitch-grid-cell.maxpat",
					"numinlets" : 1,
					"numoutlets" : 0,
					"offset" : [ 0.0, 0.0 ],
					"patching_rect" : [ 103.0, 606.0, 30.0, 30.0 ],
					"presentation" : 1,
					"presentation_rect" : [ 65.0, 80.0, 45.0, 45.0 ],
					"viewvisibility" : 1
				}

			}
, 			{
				"box" : 				{
					"bgmode" : 0,
					"border" : 0,
					"clickthrough" : 0,
					"enablehscroll" : 0,
					"enablevscroll" : 0,
					"id" : "obj-30",
					"lockeddragscroll" : 0,
					"lockedsize" : 0,
					"maxclass" : "bpatcher",
					"name" : "pitch-grid-cell.maxpat",
					"numinlets" : 1,
					"numoutlets" : 0,
					"offset" : [ 0.0, 0.0 ],
					"patching_rect" : [ 56.0, 606.0, 30.0, 30.0 ],
					"presentation" : 1,
					"presentation_rect" : [ 18.0, 80.0, 45.0, 45.0 ],
					"viewvisibility" : 1
				}

			}
, 			{
				"box" : 				{
					"bgmode" : 0,
					"border" : 0,
					"clickthrough" : 0,
					"enablehscroll" : 0,
					"enablevscroll" : 0,
					"id" : "obj-16",
					"lockeddragscroll" : 0,
					"lockedsize" : 0,
					"maxclass" : "bpatcher",
					"name" : "pitch-grid-cell.maxpat",
					"numinlets" : 1,
					"numoutlets" : 0,
					"offset" : [ 0.0, 0.0 ],
					"patching_rect" : [ 292.0, 503.0, 30.0, 30.0 ],
					"presentation" : 1,
					"presentation_rect" : [ 253.0, 33.0, 45.0, 45.0 ],
					"viewvisibility" : 1
				}

			}
, 			{
				"box" : 				{
					"bgmode" : 0,
					"border" : 0,
					"clickthrough" : 0,
					"enablehscroll" : 0,
					"enablevscroll" : 0,
					"id" : "obj-10",
					"lockeddragscroll" : 0,
					"lockedsize" : 0,
					"maxclass" : "bpatcher",
					"name" : "pitch-grid-cell.maxpat",
					"numinlets" : 1,
					"numoutlets" : 0,
					"offset" : [ 0.0, 0.0 ],
					"patching_rect" : [ 246.0, 503.0, 30.0, 30.0 ],
					"presentation" : 1,
					"presentation_rect" : [ 206.0, 33.0, 45.0, 45.0 ],
					"viewvisibility" : 1
				}

			}
, 			{
				"box" : 				{
					"bgmode" : 0,
					"border" : 0,
					"clickthrough" : 0,
					"enablehscroll" : 0,
					"enablevscroll" : 0,
					"id" : "obj-9",
					"lockeddragscroll" : 0,
					"lockedsize" : 0,
					"maxclass" : "bpatcher",
					"name" : "pitch-grid-cell.maxpat",
					"numinlets" : 1,
					"numoutlets" : 0,
					"offset" : [ 0.0, 0.0 ],
					"patching_rect" : [ 198.0, 503.0, 30.0, 30.0 ],
					"presentation" : 1,
					"presentation_rect" : [ 159.0, 33.0, 45.0, 45.0 ],
					"viewvisibility" : 1
				}

			}
, 			{
				"box" : 				{
					"bgmode" : 0,
					"border" : 0,
					"clickthrough" : 0,
					"enablehscroll" : 0,
					"enablevscroll" : 0,
					"id" : "obj-8",
					"lockeddragscroll" : 0,
					"lockedsize" : 0,
					"maxclass" : "bpatcher",
					"name" : "pitch-grid-cell.maxpat",
					"numinlets" : 1,
					"numoutlets" : 0,
					"offset" : [ 0.0, 0.0 ],
					"patching_rect" : [ 151.0, 503.0, 30.0, 30.0 ],
					"presentation" : 1,
					"presentation_rect" : [ 112.0, 33.0, 45.0, 45.0 ],
					"viewvisibility" : 1
				}

			}
, 			{
				"box" : 				{
					"bgmode" : 0,
					"border" : 0,
					"clickthrough" : 0,
					"enablehscroll" : 0,
					"enablevscroll" : 0,
					"id" : "obj-7",
					"lockeddragscroll" : 0,
					"lockedsize" : 0,
					"maxclass" : "bpatcher",
					"name" : "pitch-grid-cell.maxpat",
					"numinlets" : 1,
					"numoutlets" : 0,
					"offset" : [ 0.0, 0.0 ],
					"patching_rect" : [ 102.75, 503.0, 30.0, 30.0 ],
					"presentation" : 1,
					"presentation_rect" : [ 65.0, 33.0, 45.0, 45.0 ],
					"viewvisibility" : 1
				}

			}
, 			{
				"box" : 				{
					"bgmode" : 0,
					"border" : 0,
					"clickthrough" : 0,
					"enablehscroll" : 0,
					"enablevscroll" : 0,
					"id" : "obj-3",
					"lockeddragscroll" : 0,
					"lockedsize" : 0,
					"maxclass" : "bpatcher",
					"name" : "pitch-grid-cell.maxpat",
					"numinlets" : 1,
					"numoutlets" : 0,
					"offset" : [ 0.0, 0.0 ],
					"patching_rect" : [ 55.75, 503.0, 30.0, 30.0 ],
					"presentation" : 1,
					"presentation_rect" : [ 18.0, 33.0, 45.0, 45.0 ],
					"viewvisibility" : 1
				}

			}
, 			{
				"box" : 				{
					"id" : "obj-23",
					"maxclass" : "message",
					"numinlets" : 2,
					"numoutlets" : 1,
					"outlettype" : [ "" ],
					"patching_rect" : [ 292.25, 279.0, 29.5, 22.0 ],
					"text" : "24"
				}

			}
, 			{
				"box" : 				{
					"id" : "obj-26",
					"maxclass" : "message",
					"numinlets" : 2,
					"numoutlets" : 1,
					"outlettype" : [ "" ],
					"patching_rect" : [ 244.25, 279.0, 29.5, 22.0 ],
					"text" : "23"
				}

			}
, 			{
				"box" : 				{
					"id" : "obj-27",
					"maxclass" : "message",
					"numinlets" : 2,
					"numoutlets" : 1,
					"outlettype" : [ "" ],
					"patching_rect" : [ 197.25, 279.0, 29.5, 22.0 ],
					"text" : "22"
				}

			}
, 			{
				"box" : 				{
					"id" : "obj-28",
					"maxclass" : "message",
					"numinlets" : 2,
					"numoutlets" : 1,
					"outlettype" : [ "" ],
					"patching_rect" : [ 149.25, 279.0, 29.5, 22.0 ],
					"text" : "21"
				}

			}
, 			{
				"box" : 				{
					"id" : "obj-32",
					"maxclass" : "message",
					"numinlets" : 2,
					"numoutlets" : 1,
					"outlettype" : [ "" ],
					"patching_rect" : [ 102.25, 279.0, 29.5, 22.0 ],
					"text" : "20"
				}

			}
, 			{
				"box" : 				{
					"id" : "obj-33",
					"maxclass" : "message",
					"numinlets" : 2,
					"numoutlets" : 1,
					"outlettype" : [ "" ],
					"patching_rect" : [ 54.25, 279.0, 29.5, 22.0 ],
					"text" : "19"
				}

			}
, 			{
				"box" : 				{
					"id" : "obj-14",
					"maxclass" : "message",
					"numinlets" : 2,
					"numoutlets" : 1,
					"outlettype" : [ "" ],
					"patching_rect" : [ 292.0, 369.0, 29.5, 22.0 ],
					"text" : "18"
				}

			}
, 			{
				"box" : 				{
					"id" : "obj-15",
					"maxclass" : "message",
					"numinlets" : 2,
					"numoutlets" : 1,
					"outlettype" : [ "" ],
					"patching_rect" : [ 244.0, 369.0, 29.5, 22.0 ],
					"text" : "17"
				}

			}
, 			{
				"box" : 				{
					"id" : "obj-18",
					"maxclass" : "message",
					"numinlets" : 2,
					"numoutlets" : 1,
					"outlettype" : [ "" ],
					"patching_rect" : [ 197.0, 369.0, 29.5, 22.0 ],
					"text" : "16"
				}

			}
, 			{
				"box" : 				{
					"id" : "obj-19",
					"maxclass" : "message",
					"numinlets" : 2,
					"numoutlets" : 1,
					"outlettype" : [ "" ],
					"patching_rect" : [ 149.0, 369.0, 29.5, 22.0 ],
					"text" : "15"
				}

			}
, 			{
				"box" : 				{
					"id" : "obj-21",
					"maxclass" : "message",
					"numinlets" : 2,
					"numoutlets" : 1,
					"outlettype" : [ "" ],
					"patching_rect" : [ 102.0, 369.0, 29.5, 22.0 ],
					"text" : "14"
				}

			}
, 			{
				"box" : 				{
					"id" : "obj-22",
					"maxclass" : "message",
					"numinlets" : 2,
					"numoutlets" : 1,
					"outlettype" : [ "" ],
					"patching_rect" : [ 54.0, 369.0, 29.5, 22.0 ],
					"text" : "13"
				}

			}
, 			{
				"box" : 				{
					"id" : "obj-13",
					"maxclass" : "message",
					"numinlets" : 2,
					"numoutlets" : 1,
					"outlettype" : [ "" ],
					"patching_rect" : [ 292.0, 470.0, 29.5, 22.0 ],
					"text" : "12"
				}

			}
, 			{
				"box" : 				{
					"id" : "obj-12",
					"maxclass" : "message",
					"numinlets" : 2,
					"numoutlets" : 1,
					"outlettype" : [ "" ],
					"patching_rect" : [ 246.25, 470.0, 29.5, 22.0 ],
					"text" : "11"
				}

			}
, 			{
				"box" : 				{
					"id" : "obj-114",
					"maxclass" : "message",
					"numinlets" : 2,
					"numoutlets" : 1,
					"outlettype" : [ "" ],
					"patching_rect" : [ 198.0, 470.0, 29.5, 22.0 ],
					"text" : "10"
				}

			}
, 			{
				"box" : 				{
					"id" : "obj-115",
					"maxclass" : "message",
					"numinlets" : 2,
					"numoutlets" : 1,
					"outlettype" : [ "" ],
					"patching_rect" : [ 151.0, 470.0, 29.5, 22.0 ],
					"text" : "9"
				}

			}
, 			{
				"box" : 				{
					"id" : "obj-116",
					"maxclass" : "message",
					"numinlets" : 2,
					"numoutlets" : 1,
					"outlettype" : [ "" ],
					"patching_rect" : [ 103.0, 470.0, 29.5, 22.0 ],
					"text" : "8"
				}

			}
, 			{
				"box" : 				{
					"id" : "obj-117",
					"maxclass" : "message",
					"numinlets" : 2,
					"numoutlets" : 1,
					"outlettype" : [ "" ],
					"patching_rect" : [ 56.0, 470.0, 29.5, 22.0 ],
					"text" : "7"
				}

			}
, 			{
				"box" : 				{
					"id" : "obj-11",
					"maxclass" : "message",
					"numinlets" : 2,
					"numoutlets" : 1,
					"outlettype" : [ "" ],
					"patching_rect" : [ 292.25, 570.0, 29.5, 22.0 ],
					"text" : "6"
				}

			}
, 			{
				"box" : 				{
					"id" : "obj-69",
					"maxclass" : "message",
					"numinlets" : 2,
					"numoutlets" : 1,
					"outlettype" : [ "" ],
					"patching_rect" : [ 246.0, 570.0, 29.5, 22.0 ],
					"text" : "5"
				}

			}
, 			{
				"box" : 				{
					"id" : "obj-70",
					"maxclass" : "message",
					"numinlets" : 2,
					"numoutlets" : 1,
					"outlettype" : [ "" ],
					"patching_rect" : [ 198.0, 570.0, 29.5, 22.0 ],
					"text" : "4"
				}

			}
, 			{
				"box" : 				{
					"id" : "obj-73",
					"maxclass" : "message",
					"numinlets" : 2,
					"numoutlets" : 1,
					"outlettype" : [ "" ],
					"patching_rect" : [ 151.0, 570.0, 29.5, 22.0 ],
					"text" : "3"
				}

			}
, 			{
				"box" : 				{
					"id" : "obj-74",
					"maxclass" : "message",
					"numinlets" : 2,
					"numoutlets" : 1,
					"outlettype" : [ "" ],
					"patching_rect" : [ 103.0, 570.0, 29.5, 22.0 ],
					"text" : "2"
				}

			}
, 			{
				"box" : 				{
					"id" : "obj-75",
					"maxclass" : "message",
					"numinlets" : 2,
					"numoutlets" : 1,
					"outlettype" : [ "" ],
					"patching_rect" : [ 56.0, 570.0, 29.5, 22.0 ],
					"text" : "1"
				}

			}
, 			{
				"box" : 				{
					"id" : "obj-6",
					"maxclass" : "newobj",
					"numinlets" : 1,
					"numoutlets" : 0,
					"patching_rect" : [ 239.0, 216.0, 70.0, 22.0 ],
					"text" : "s ---y-coord"
				}

			}
, 			{
				"box" : 				{
					"id" : "obj-1",
					"maxclass" : "newobj",
					"numinlets" : 1,
					"numoutlets" : 0,
					"patching_rect" : [ 154.0, 216.0, 70.0, 22.0 ],
					"text" : "s ---x-coord"
				}

			}
, 			{
				"box" : 				{
					"fontsize" : 11.0,
					"id" : "obj-4",
					"maxclass" : "live.comment",
					"numinlets" : 1,
					"numoutlets" : 0,
					"patching_rect" : [ 96.521735966205597, 35.652172744274139, 176.25, 20.0 ],
					"presentation" : 1,
					"presentation_rect" : [ 6.0, 2.0, 43.0, 20.0 ],
					"text" : "Pitch",
					"textjustification" : 0
				}

			}
, 			{
				"box" : 				{
					"activebgcolor" : [ 0.94902, 0.376471, 0.0, 0.0 ],
					"activeslidercolor" : [ 1.0, 0.709804, 0.196078, 1.0 ],
					"activetricolor2" : [ 1.0, 0.709804, 0.196078, 1.0 ],
					"annotation" : "Defines the depth for the modulation value.",
					"annotation_name" : "Modulation Amount",
					"appearance" : 4,
					"focusbordercolor" : [ 1.0, 0.709804, 0.196078, 1.0 ],
					"id" : "obj-2",
					"lcdcolor" : [ 0.580392156862745, 0.870588235294118, 0.905882352941176, 1.0 ],
					"maxclass" : "live.numbox",
					"numinlets" : 1,
					"numoutlets" : 2,
					"outlettype" : [ "", "float" ],
					"parameter_enable" : 1,
					"parameter_mappable" : 0,
					"patching_rect" : [ 239.0, 186.0, 36.0, 15.0 ],
					"prototypename" : "amount",
					"saved_attribute_attributes" : 					{
						"activebgcolor" : 						{
							"expression" : ""
						}
,
						"activeslidercolor" : 						{
							"expression" : ""
						}
,
						"activetricolor2" : 						{
							"expression" : ""
						}
,
						"focusbordercolor" : 						{
							"expression" : ""
						}
,
						"lcdcolor" : 						{
							"expression" : ""
						}
,
						"textcolor" : 						{
							"expression" : ""
						}
,
						"valueof" : 						{
							"parameter_annotation_name" : "Modulation Amount",
							"parameter_enum" : [ "0", "1" ],
							"parameter_info" : "Defines the depth for the modulation value.",
							"parameter_initial" : [ 0 ],
							"parameter_initial_enable" : 1,
							"parameter_invisible" : 2,
							"parameter_longname" : "Y-Coordinate",
							"parameter_mmax" : 1.0,
							"parameter_modmode" : 0,
							"parameter_shortname" : "Y-Coord",
							"parameter_type" : 0,
							"parameter_unitstyle" : 1
						}

					}
,
					"textcolor" : [ 1.0, 0.709803921568627, 0.196078431372549, 1.0 ],
					"varname" : "y-coord"
				}

			}
, 			{
				"box" : 				{
					"activebgcolor" : [ 0.94902, 0.376471, 0.0, 0.0 ],
					"activeslidercolor" : [ 1.0, 0.709804, 0.196078, 1.0 ],
					"activetricolor2" : [ 1.0, 0.709804, 0.196078, 1.0 ],
					"annotation" : "Defines the depth for the modulation value.",
					"annotation_name" : "Modulation Amount",
					"appearance" : 4,
					"focusbordercolor" : [ 1.0, 0.709804, 0.196078, 1.0 ],
					"id" : "obj-5",
					"lcdcolor" : [ 1.0, 0.823529411764706, 0.662745098039216, 1.0 ],
					"maxclass" : "live.numbox",
					"numinlets" : 1,
					"numoutlets" : 2,
					"outlettype" : [ "", "float" ],
					"parameter_enable" : 1,
					"parameter_mappable" : 0,
					"patching_rect" : [ 154.0, 187.0, 36.0, 15.0 ],
					"prototypename" : "amount",
					"saved_attribute_attributes" : 					{
						"activebgcolor" : 						{
							"expression" : ""
						}
,
						"activeslidercolor" : 						{
							"expression" : ""
						}
,
						"activetricolor2" : 						{
							"expression" : ""
						}
,
						"focusbordercolor" : 						{
							"expression" : ""
						}
,
						"lcdcolor" : 						{
							"expression" : ""
						}
,
						"textcolor" : 						{
							"expression" : "themecolor.live_control_zombie"
						}
,
						"valueof" : 						{
							"parameter_annotation_name" : "Modulation Amount",
							"parameter_enum" : [ "0", "1" ],
							"parameter_info" : "Defines the depth for the modulation value.",
							"parameter_initial" : [ 0 ],
							"parameter_initial_enable" : 1,
							"parameter_invisible" : 2,
							"parameter_longname" : "X-Coordinate",
							"parameter_mmax" : 1.0,
							"parameter_modmode" : 0,
							"parameter_shortname" : "X-Coord",
							"parameter_type" : 0,
							"parameter_unitstyle" : 1
						}

					}
,
					"textcolor" : [ 0.458823529411765, 0.458823529411765, 0.458823529411765, 1.0 ],
					"varname" : "x-coord"
				}

			}
, 			{
				"box" : 				{
					"id" : "obj-31",
					"maxclass" : "button",
					"numinlets" : 1,
					"numoutlets" : 1,
					"outlettype" : [ "bang" ],
					"parameter_enable" : 0,
					"patching_rect" : [ 27.5, 183.0, 24.0, 24.0 ]
				}

			}
, 			{
				"box" : 				{
					"id" : "obj-40",
					"maxclass" : "live.slider",
					"numinlets" : 1,
					"numoutlets" : 2,
					"orientation" : 1,
					"outlettype" : [ "", "float" ],
					"parameter_enable" : 1,
					"patching_rect" : [ 96.521735966205597, 66.086954355239868, 76.0, 41.0 ],
					"presentation" : 1,
					"presentation_rect" : [ 12.0, 127.0, 294.0, 41.0 ],
					"saved_attribute_attributes" : 					{
						"slidercolor" : 						{
							"expression" : "themecolor.live_control_zombie"
						}
,
						"textcolor" : 						{
							"expression" : ""
						}
,
						"tribordercolor" : 						{
							"expression" : "themecolor.live_control_selection"
						}
,
						"tricolor" : 						{
							"expression" : "themecolor.live_dial_triangle"
						}
,
						"trioncolor" : 						{
							"expression" : "themecolor.live_control_selection"
						}
,
						"valueof" : 						{
							"parameter_longname" : "X-Axis",
							"parameter_mmax" : 1.0,
							"parameter_modmode" : 3,
							"parameter_shortname" : "X-Axis",
							"parameter_type" : 0,
							"parameter_unitstyle" : 1
						}

					}
,
					"slidercolor" : [ 0.458823529411765, 0.458823529411765, 0.458823529411765, 1.0 ],
					"textcolor" : [ 0.709803921568627, 0.709803921568627, 0.709803921568627, 0.0 ],
					"tribordercolor" : [ 1.0, 0.67843137254902, 0.337254901960784, 1.0 ],
					"tricolor" : [ 0.066666666666667, 0.066666666666667, 0.066666666666667, 1.0 ],
					"trioncolor" : [ 1.0, 0.67843137254902, 0.337254901960784, 1.0 ],
					"varname" : "x-axis"
				}

			}
, 			{
				"box" : 				{
					"id" : "obj-37",
					"maxclass" : "newobj",
					"numinlets" : 1,
					"numoutlets" : 3,
					"outlettype" : [ "bang", "int", "int" ],
					"patching_rect" : [ 27.5, 216.0, 83.0, 22.0 ],
					"text" : "live.thisdevice"
				}

			}
, 			{
				"box" : 				{
					"id" : "obj-38",
					"maxclass" : "live.slider",
					"numinlets" : 1,
					"numoutlets" : 2,
					"outlettype" : [ "", "float" ],
					"parameter_enable" : 1,
					"patching_rect" : [ 209.0, 66.0, 49.0, 102.0 ],
					"presentation" : 1,
					"presentation_rect" : [ 296.0, 16.0, 32.0, 128.0 ],
					"saved_attribute_attributes" : 					{
						"slidercolor" : 						{
							"expression" : "themecolor.live_control_zombie"
						}
,
						"textcolor" : 						{
							"expression" : ""
						}
,
						"tribordercolor" : 						{
							"expression" : "themecolor.live_control_selection"
						}
,
						"tricolor" : 						{
							"expression" : "themecolor.live_dial_triangle"
						}
,
						"trioncolor" : 						{
							"expression" : "themecolor.live_control_selection"
						}
,
						"valueof" : 						{
							"parameter_longname" : "Y-Axis",
							"parameter_mmax" : 1.0,
							"parameter_modmode" : 3,
							"parameter_shortname" : "Y-Axis",
							"parameter_type" : 0,
							"parameter_unitstyle" : 1
						}

					}
,
					"slidercolor" : [ 0.458823529411765, 0.458823529411765, 0.458823529411765, 1.0 ],
					"textcolor" : [ 0.709803921568627, 0.709803921568627, 0.709803921568627, 0.0 ],
					"tribordercolor" : [ 1.0, 0.67843137254902, 0.337254901960784, 1.0 ],
					"tricolor" : [ 0.066666666666667, 0.066666666666667, 0.066666666666667, 1.0 ],
					"trioncolor" : [ 1.0, 0.67843137254902, 0.337254901960784, 1.0 ],
					"varname" : "y-axis"
				}

			}
 ],
		"lines" : [ 			{
				"patchline" : 				{
					"destination" : [ "obj-17", 0 ],
					"source" : [ "obj-11", 0 ]
				}

			}
, 			{
				"patchline" : 				{
					"destination" : [ "obj-9", 0 ],
					"source" : [ "obj-114", 0 ]
				}

			}
, 			{
				"patchline" : 				{
					"destination" : [ "obj-8", 0 ],
					"source" : [ "obj-115", 0 ]
				}

			}
, 			{
				"patchline" : 				{
					"destination" : [ "obj-7", 0 ],
					"source" : [ "obj-116", 0 ]
				}

			}
, 			{
				"patchline" : 				{
					"destination" : [ "obj-3", 0 ],
					"source" : [ "obj-117", 0 ]
				}

			}
, 			{
				"patchline" : 				{
					"destination" : [ "obj-10", 0 ],
					"source" : [ "obj-12", 0 ]
				}

			}
, 			{
				"patchline" : 				{
					"destination" : [ "obj-16", 0 ],
					"source" : [ "obj-13", 0 ]
				}

			}
, 			{
				"patchline" : 				{
					"destination" : [ "obj-6", 0 ],
					"midpoints" : [ 248.5, 203.913045644760132, 248.5, 203.913045644760132 ],
					"source" : [ "obj-2", 0 ]
				}

			}
, 			{
				"patchline" : 				{
					"destination" : [ "obj-37", 0 ],
					"midpoints" : [ 37.0, 210.0, 37.0, 210.0 ],
					"source" : [ "obj-31", 0 ]
				}

			}
, 			{
				"patchline" : 				{
					"destination" : [ "obj-11", 0 ],
					"midpoints" : [ 37.0, 555.0, 301.75, 555.0 ],
					"order" : 0,
					"source" : [ "obj-37", 0 ]
				}

			}
, 			{
				"patchline" : 				{
					"destination" : [ "obj-114", 0 ],
					"midpoints" : [ 37.0, 456.0, 207.5, 456.0 ],
					"order" : 9,
					"source" : [ "obj-37", 0 ]
				}

			}
, 			{
				"patchline" : 				{
					"destination" : [ "obj-115", 0 ],
					"midpoints" : [ 37.0, 456.0, 160.5, 456.0 ],
					"order" : 13,
					"source" : [ "obj-37", 0 ]
				}

			}
, 			{
				"patchline" : 				{
					"destination" : [ "obj-116", 0 ],
					"midpoints" : [ 37.0, 456.0, 112.5, 456.0 ],
					"order" : 17,
					"source" : [ "obj-37", 0 ]
				}

			}
, 			{
				"patchline" : 				{
					"destination" : [ "obj-117", 0 ],
					"midpoints" : [ 37.0, 456.0, 65.5, 456.0 ],
					"order" : 21,
					"source" : [ "obj-37", 0 ]
				}

			}
, 			{
				"patchline" : 				{
					"destination" : [ "obj-12", 0 ],
					"midpoints" : [ 37.0, 456.0, 255.75, 456.0 ],
					"order" : 5,
					"source" : [ "obj-37", 0 ]
				}

			}
, 			{
				"patchline" : 				{
					"destination" : [ "obj-13", 0 ],
					"midpoints" : [ 37.0, 456.0, 301.5, 456.0 ],
					"order" : 1,
					"source" : [ "obj-37", 0 ]
				}

			}
, 			{
				"patchline" : 				{
					"destination" : [ "obj-14", 0 ],
					"midpoints" : [ 37.0, 354.0, 301.5, 354.0 ],
					"order" : 2,
					"source" : [ "obj-37", 0 ]
				}

			}
, 			{
				"patchline" : 				{
					"destination" : [ "obj-15", 0 ],
					"midpoints" : [ 37.0, 354.0, 253.5, 354.0 ],
					"order" : 6,
					"source" : [ "obj-37", 0 ]
				}

			}
, 			{
				"patchline" : 				{
					"destination" : [ "obj-18", 0 ],
					"midpoints" : [ 37.0, 354.0, 206.5, 354.0 ],
					"order" : 10,
					"source" : [ "obj-37", 0 ]
				}

			}
, 			{
				"patchline" : 				{
					"destination" : [ "obj-19", 0 ],
					"midpoints" : [ 37.0, 354.0, 158.5, 354.0 ],
					"order" : 14,
					"source" : [ "obj-37", 0 ]
				}

			}
, 			{
				"patchline" : 				{
					"destination" : [ "obj-21", 0 ],
					"midpoints" : [ 37.0, 354.0, 111.5, 354.0 ],
					"order" : 18,
					"source" : [ "obj-37", 0 ]
				}

			}
, 			{
				"patchline" : 				{
					"destination" : [ "obj-22", 0 ],
					"midpoints" : [ 37.0, 354.0, 63.5, 354.0 ],
					"order" : 22,
					"source" : [ "obj-37", 0 ]
				}

			}
, 			{
				"patchline" : 				{
					"destination" : [ "obj-23", 0 ],
					"midpoints" : [ 37.0, 264.0, 301.75, 264.0 ],
					"order" : 3,
					"source" : [ "obj-37", 0 ]
				}

			}
, 			{
				"patchline" : 				{
					"destination" : [ "obj-26", 0 ],
					"midpoints" : [ 37.0, 264.0, 253.75, 264.0 ],
					"order" : 7,
					"source" : [ "obj-37", 0 ]
				}

			}
, 			{
				"patchline" : 				{
					"destination" : [ "obj-27", 0 ],
					"midpoints" : [ 37.0, 264.0, 206.75, 264.0 ],
					"order" : 11,
					"source" : [ "obj-37", 0 ]
				}

			}
, 			{
				"patchline" : 				{
					"destination" : [ "obj-28", 0 ],
					"midpoints" : [ 37.0, 264.0, 158.75, 264.0 ],
					"order" : 15,
					"source" : [ "obj-37", 0 ]
				}

			}
, 			{
				"patchline" : 				{
					"destination" : [ "obj-32", 0 ],
					"midpoints" : [ 37.0, 264.0, 111.75, 264.0 ],
					"order" : 19,
					"source" : [ "obj-37", 0 ]
				}

			}
, 			{
				"patchline" : 				{
					"destination" : [ "obj-33", 0 ],
					"midpoints" : [ 37.0, 264.0, 63.75, 264.0 ],
					"order" : 23,
					"source" : [ "obj-37", 0 ]
				}

			}
, 			{
				"patchline" : 				{
					"destination" : [ "obj-69", 0 ],
					"midpoints" : [ 37.0, 555.0, 255.5, 555.0 ],
					"order" : 4,
					"source" : [ "obj-37", 0 ]
				}

			}
, 			{
				"patchline" : 				{
					"destination" : [ "obj-70", 0 ],
					"midpoints" : [ 37.0, 555.0, 207.5, 555.0 ],
					"order" : 8,
					"source" : [ "obj-37", 0 ]
				}

			}
, 			{
				"patchline" : 				{
					"destination" : [ "obj-73", 0 ],
					"midpoints" : [ 37.0, 555.0, 160.5, 555.0 ],
					"order" : 12,
					"source" : [ "obj-37", 0 ]
				}

			}
, 			{
				"patchline" : 				{
					"destination" : [ "obj-74", 0 ],
					"midpoints" : [ 37.0, 555.0, 112.5, 555.0 ],
					"order" : 16,
					"source" : [ "obj-37", 0 ]
				}

			}
, 			{
				"patchline" : 				{
					"destination" : [ "obj-75", 0 ],
					"midpoints" : [ 37.0, 555.0, 65.5, 555.0 ],
					"order" : 20,
					"source" : [ "obj-37", 0 ]
				}

			}
, 			{
				"patchline" : 				{
					"destination" : [ "obj-2", 0 ],
					"midpoints" : [ 248.5, 170.913045644760132, 248.5, 170.913045644760132 ],
					"source" : [ "obj-38", 1 ]
				}

			}
, 			{
				"patchline" : 				{
					"destination" : [ "obj-5", 0 ],
					"midpoints" : [ 163.021735966205597, 108.0, 163.5, 108.0 ],
					"source" : [ "obj-40", 1 ]
				}

			}
, 			{
				"patchline" : 				{
					"destination" : [ "obj-1", 0 ],
					"midpoints" : [ 163.5, 204.0, 163.5, 204.0 ],
					"source" : [ "obj-5", 0 ]
				}

			}
, 			{
				"patchline" : 				{
					"destination" : [ "obj-20", 0 ],
					"source" : [ "obj-69", 0 ]
				}

			}
, 			{
				"patchline" : 				{
					"destination" : [ "obj-24", 0 ],
					"source" : [ "obj-70", 0 ]
				}

			}
, 			{
				"patchline" : 				{
					"destination" : [ "obj-25", 0 ],
					"source" : [ "obj-73", 0 ]
				}

			}
, 			{
				"patchline" : 				{
					"destination" : [ "obj-29", 0 ],
					"source" : [ "obj-74", 0 ]
				}

			}
, 			{
				"patchline" : 				{
					"destination" : [ "obj-30", 0 ],
					"source" : [ "obj-75", 0 ]
				}

			}
 ],
		"parameters" : 		{
			"obj-10::obj-48" : [ "Pitch Selection[4]", "Pitch Selection", 0 ],
			"obj-10::obj-55" : [ "Pitch Flash[4]", "Pitch Flash", 0 ],
			"obj-10::obj-83" : [ "Pitch (0-127)[4]", "Pitch", 0 ],
			"obj-16::obj-48" : [ "Pitch Selection[5]", "Pitch Selection", 0 ],
			"obj-16::obj-55" : [ "Pitch Flash[5]", "Pitch Flash", 0 ],
			"obj-16::obj-83" : [ "Pitch (0-127)[5]", "Pitch", 0 ],
			"obj-17::obj-48" : [ "Pitch Selection[11]", "Pitch Selection", 0 ],
			"obj-17::obj-55" : [ "Pitch Flash[11]", "Pitch Flash", 0 ],
			"obj-17::obj-83" : [ "Pitch (0-127)[11]", "Pitch", 0 ],
			"obj-2" : [ "Y-Coordinate", "Y-Coord", 0 ],
			"obj-20::obj-48" : [ "Pitch Selection[10]", "Pitch Selection", 0 ],
			"obj-20::obj-55" : [ "Pitch Flash[10]", "Pitch Flash", 0 ],
			"obj-20::obj-83" : [ "Pitch (0-127)[10]", "Pitch", 0 ],
			"obj-24::obj-48" : [ "Pitch Selection[9]", "Pitch Selection", 0 ],
			"obj-24::obj-55" : [ "Pitch Flash[9]", "Pitch Flash", 0 ],
			"obj-24::obj-83" : [ "Pitch (0-127)[9]", "Pitch", 0 ],
			"obj-25::obj-48" : [ "Pitch Selection[8]", "Pitch Selection", 0 ],
			"obj-25::obj-55" : [ "Pitch Flash[8]", "Pitch Flash", 0 ],
			"obj-25::obj-83" : [ "Pitch (0-127)[8]", "Pitch", 0 ],
			"obj-29::obj-48" : [ "Pitch Selection[7]", "Pitch Selection", 0 ],
			"obj-29::obj-55" : [ "Pitch Flash[7]", "Pitch Flash", 0 ],
			"obj-29::obj-83" : [ "Pitch (0-127)[7]", "Pitch", 0 ],
			"obj-30::obj-48" : [ "Pitch Selection[6]", "Pitch Selection", 0 ],
			"obj-30::obj-55" : [ "Pitch Flash[6]", "Pitch Flash", 0 ],
			"obj-30::obj-83" : [ "Pitch (0-127)[6]", "Pitch", 0 ],
			"obj-38" : [ "Y-Axis", "Y-Axis", 0 ],
			"obj-3::obj-48" : [ "Pitch Selection", "Pitch Selection", 0 ],
			"obj-3::obj-55" : [ "Pitch Flash", "Pitch Flash", 0 ],
			"obj-3::obj-83" : [ "Pitch (0-127)", "Pitch", 0 ],
			"obj-40" : [ "X-Axis", "X-Axis", 0 ],
			"obj-5" : [ "X-Coordinate", "X-Coord", 0 ],
			"obj-7::obj-48" : [ "Pitch Selection[1]", "Pitch Selection", 0 ],
			"obj-7::obj-55" : [ "Pitch Flash[1]", "Pitch Flash", 0 ],
			"obj-7::obj-83" : [ "Pitch (0-127)[1]", "Pitch", 0 ],
			"obj-8::obj-48" : [ "Pitch Selection[2]", "Pitch Selection", 0 ],
			"obj-8::obj-55" : [ "Pitch Flash[2]", "Pitch Flash", 0 ],
			"obj-8::obj-83" : [ "Pitch (0-127)[2]", "Pitch", 0 ],
			"obj-9::obj-48" : [ "Pitch Selection[3]", "Pitch Selection", 0 ],
			"obj-9::obj-55" : [ "Pitch Flash[3]", "Pitch Flash", 0 ],
			"obj-9::obj-83" : [ "Pitch (0-127)[3]", "Pitch", 0 ],
			"parameterbanks" : 			{
				"0" : 				{
					"index" : 0,
					"name" : "",
					"parameters" : [ "-", "-", "-", "-", "-", "-", "-", "-" ]
				}

			}
,
			"parameter_overrides" : 			{
				"obj-10::obj-48" : 				{
					"parameter_longname" : "Pitch Selection[4]"
				}
,
				"obj-10::obj-55" : 				{
					"parameter_longname" : "Pitch Flash[4]"
				}
,
				"obj-10::obj-83" : 				{
					"parameter_longname" : "Pitch (0-127)[4]"
				}
,
				"obj-16::obj-48" : 				{
					"parameter_longname" : "Pitch Selection[5]"
				}
,
				"obj-16::obj-55" : 				{
					"parameter_longname" : "Pitch Flash[5]"
				}
,
				"obj-16::obj-83" : 				{
					"parameter_longname" : "Pitch (0-127)[5]"
				}
,
				"obj-17::obj-48" : 				{
					"parameter_longname" : "Pitch Selection[11]"
				}
,
				"obj-17::obj-55" : 				{
					"parameter_longname" : "Pitch Flash[11]"
				}
,
				"obj-17::obj-83" : 				{
					"parameter_longname" : "Pitch (0-127)[11]"
				}
,
				"obj-20::obj-48" : 				{
					"parameter_longname" : "Pitch Selection[10]"
				}
,
				"obj-20::obj-55" : 				{
					"parameter_longname" : "Pitch Flash[10]"
				}
,
				"obj-20::obj-83" : 				{
					"parameter_longname" : "Pitch (0-127)[10]"
				}
,
				"obj-24::obj-48" : 				{
					"parameter_longname" : "Pitch Selection[9]"
				}
,
				"obj-24::obj-55" : 				{
					"parameter_longname" : "Pitch Flash[9]"
				}
,
				"obj-24::obj-83" : 				{
					"parameter_longname" : "Pitch (0-127)[9]"
				}
,
				"obj-25::obj-48" : 				{
					"parameter_longname" : "Pitch Selection[8]"
				}
,
				"obj-25::obj-55" : 				{
					"parameter_longname" : "Pitch Flash[8]"
				}
,
				"obj-25::obj-83" : 				{
					"parameter_longname" : "Pitch (0-127)[8]"
				}
,
				"obj-29::obj-48" : 				{
					"parameter_longname" : "Pitch Selection[7]"
				}
,
				"obj-29::obj-55" : 				{
					"parameter_longname" : "Pitch Flash[7]"
				}
,
				"obj-29::obj-83" : 				{
					"parameter_longname" : "Pitch (0-127)[7]"
				}
,
				"obj-30::obj-48" : 				{
					"parameter_longname" : "Pitch Selection[6]"
				}
,
				"obj-30::obj-55" : 				{
					"parameter_longname" : "Pitch Flash[6]"
				}
,
				"obj-30::obj-83" : 				{
					"parameter_longname" : "Pitch (0-127)[6]"
				}
,
				"obj-7::obj-48" : 				{
					"parameter_longname" : "Pitch Selection[1]"
				}
,
				"obj-7::obj-55" : 				{
					"parameter_longname" : "Pitch Flash[1]"
				}
,
				"obj-7::obj-83" : 				{
					"parameter_longname" : "Pitch (0-127)[1]"
				}
,
				"obj-8::obj-48" : 				{
					"parameter_longname" : "Pitch Selection[2]"
				}
,
				"obj-8::obj-55" : 				{
					"parameter_longname" : "Pitch Flash[2]"
				}
,
				"obj-8::obj-83" : 				{
					"parameter_longname" : "Pitch (0-127)[2]"
				}
,
				"obj-9::obj-48" : 				{
					"parameter_longname" : "Pitch Selection[3]"
				}
,
				"obj-9::obj-55" : 				{
					"parameter_longname" : "Pitch Flash[3]"
				}
,
				"obj-9::obj-83" : 				{
					"parameter_longname" : "Pitch (0-127)[3]"
				}

			}
,
			"inherited_shortname" : 1
		}
,
		"dependency_cache" : [ 			{
				"name" : "cell-coordinates.txt",
				"bootpath" : "~/code/x-IMU3-Musical-Instrument/utils/Pitch Grid",
				"patcherrelativepath" : ".",
				"type" : "TEXT",
				"implicit" : 1
			}
, 			{
				"name" : "cell-pitches.txt",
				"bootpath" : "~/code/x-IMU3-Musical-Instrument/utils/Pitch Grid",
				"patcherrelativepath" : ".",
				"type" : "TEXT",
				"implicit" : 1
			}
, 			{
				"name" : "pitch-grid-cell.maxpat",
				"bootpath" : "~/code/x-IMU3-Musical-Instrument/utils/Pitch Grid",
				"patcherrelativepath" : ".",
				"type" : "JSON",
				"implicit" : 1
			}
 ],
		"autosave" : 0
	}

}
